# xmcd CD database file
#
# Track frame offsets:
#	150
#	2486
#	88907
#	175328
#	261748
#	267011
#	269647
#	272283
#	274890
#	277526
#	282414
#	287302
#	292190
#	297078
#	301962
#	306773
#
# Disc length: 4151 seconds
#
# Revision: 1
# Processed by: cddbd v1.5.2PL0 Copyright (c) Steve Scherf et al.
# Submitted via: CDex 1.51
#
DISCID=f4103510
DTITLE=Southern Arts Federation - JazzSouth Broadcast 43, Summer 2003
DYEAR=2002
DGENRE=Jazz
TTITLE0=Intro
TTITLE1=Jack Wilkins - Walt In The Trap-A Ridge Away-Tuscan Hills
TTITLE2=Reuben Hoch - Bilvavi-Keli Atoh
TTITLE3=Lisa Kelly and JB Scott Jazz 5-tet - Night and Day-Agressive Passivity-Sea Journey
TTITLE4=Outro
TTITLE5=30 sec. promos--full program
TTITLE6=30 sec. promos--Wilkins
TTITLE7=30 sec. promos--Hoch
TTITLE8=30 sec. promos--Kelly/Scott
TTITLE9=60 sec. promos--full program
TTITLE10=60 sec. promos--Wilkins
TTITLE11=60 sec. promos--Hoch
TTITLE12=60 sec. promos--Kelly/Scott
TTITLE13=60 sec. PSAs--Attention Artists
TTITLE14=60 sec. PSAs--JazzSouth Samplers
TTITLE15=60 sec. PSAs--JazzSouth Mission
EXTD=Radio jazz programs YEAR: 2002
EXTT0=
EXTT1=
EXTT2=
EXTT3=
EXTT4=
EXTT5=
EXTT6=
EXTT7=
EXTT8=
EXTT9=
EXTT10=
EXTT11=
EXTT12=
EXTT13=
EXTT14=
EXTT15=
PLAYORDER=
